<svg width="25" height="25" viewBox="0 0 25 25" fill="none" xmlns="http://www.w3.org/2000/svg">
<path d="M6.48438 21.0586H3.48438C3.21916 21.0586 2.9648 20.9532 2.77727 20.7657C2.58973 20.5782 2.48438 20.3238 2.48438 20.0586V12.0586C2.48438 11.7934 2.58973 11.539 2.77727 11.3515C2.9648 11.164 3.21916 11.0586 3.48438 11.0586H6.48438C6.74959 11.0586 7.00395 11.164 7.19148 11.3515C7.37902 11.539 7.48438 11.7934 7.48438 12.0586V20.0586C7.48438 20.3238 7.37902 20.5782 7.19148 20.7657C7.00395 20.9532 6.74959 21.0586 6.48438 21.0586ZM13.4844 21.0586H10.4844C10.2192 21.0586 9.9648 20.9532 9.77727 20.7657C9.58973 20.5782 9.48438 20.3238 9.48438 20.0586V3.05859C9.48438 2.79338 9.58973 2.53902 9.77727 2.35149C9.9648 2.16395 10.2192 2.05859 10.4844 2.05859H13.4844C13.7496 2.05859 14.0039 2.16395 14.1915 2.35149C14.379 2.53902 14.4844 2.79338 14.4844 3.05859V20.0586C14.4844 20.3238 14.379 20.5782 14.1915 20.7657C14.0039 20.9532 13.7496 21.0586 13.4844 21.0586ZM20.4844 21.0586H17.4844C17.2192 21.0586 16.9648 20.9532 16.7773 20.7657C16.5897 20.5782 16.4844 20.3238 16.4844 20.0586V9.05859C16.4844 8.79338 16.5897 8.53902 16.7773 8.35149C16.9648 8.16395 17.2192 8.05859 17.4844 8.05859H20.4844C20.7496 8.05859 21.0039 8.16395 21.1915 8.35149C21.379 8.53902 21.4844 8.79338 21.4844 9.05859V20.0586C21.4844 20.3238 21.379 20.5782 21.1915 20.7657C21.0039 20.9532 20.7496 21.0586 20.4844 21.0586Z" fill="black"/>
</svg>
