<svg width="25" height="25" viewBox="0 0 25 25" fill="none" xmlns="http://www.w3.org/2000/svg">
<path d="M20.4766 3.41016H4.47656C4.21135 3.41016 3.95699 3.51551 3.76946 3.70305C3.58192 3.89059 3.47656 4.14494 3.47656 4.41016V20.4102C3.47656 20.6754 3.58192 20.9297 3.76946 21.1173C3.95699 21.3048 4.21135 21.4102 4.47656 21.4102H13.0916V14.4502H10.7536V11.7252H13.0916V9.72516C13.0916 7.40016 14.5116 6.13316 16.5916 6.13316C17.2906 6.13116 17.9906 6.16716 18.6866 6.24016V8.66016H17.2516C16.1236 8.66016 15.9036 9.19816 15.9036 9.98516V11.7202H18.6006L18.2506 14.4452H15.9026V21.4102H20.4766C20.7418 21.4102 20.9961 21.3048 21.1837 21.1173C21.3712 20.9297 21.4766 20.6754 21.4766 20.4102V4.41016C21.4766 4.14494 21.3712 3.89059 21.1837 3.70305C20.9961 3.51551 20.7418 3.41016 20.4766 3.41016Z" fill="black"/>
</svg>
