<svg width="25" height="25" viewBox="0 0 25 25" fill="none" xmlns="http://www.w3.org/2000/svg">
<path d="M4.38281 21.791H20.2758C21.3788 21.791 22.2758 20.894 22.2758 19.791V5.79102C22.2758 4.68802 21.3788 3.79102 20.2758 3.79102H4.38281C3.27981 3.79102 2.38281 4.68802 2.38281 5.79102V19.791C2.38281 20.894 3.27981 21.791 4.38281 21.791ZM4.38281 19.791V14.791H8.38281V19.791H4.38281ZM14.3828 7.79102V12.791H10.3828V7.79102H14.3828ZM8.38281 7.79102V12.791H4.38281V7.79102H8.38281ZM10.3828 19.791V14.791H14.3828V19.791H10.3828ZM16.3828 19.791V14.791H20.2768V19.791H16.3828ZM20.2758 12.791H16.3828V7.79102H20.2758V12.791Z" fill="black"/>
</svg>
